<svg width="113" height="30" viewBox="0 0 113 30" fill="none" xmlns="http://www.w3.org/2000/svg">
<path d="M10.9609 29.748C17.2109 29.748 21.3906 26.8184 21.3906 22.1309C21.3906 18.8691 19.3008 17.0723 14.6328 16.2129L10.7266 15.4902C8.77344 15.1191 8.24609 14.6504 8.24609 13.8887C8.24609 12.9121 9.22266 12.3262 10.668 12.3262C12.6797 12.3262 13.6562 13.5371 14.7695 14.377C15.4141 14.8848 16.5664 15.2168 17.3867 15.2168C19.4961 15.2168 20.4336 14.123 20.4336 12.6191C20.4336 12.2285 20.3555 11.8379 20.2188 11.4668C19.3789 9.16211 16 7.0918 10.668 7.0918C4.39844 7.0918 0.589844 9.8457 0.589844 14.3379C0.589844 17.6777 2.83594 20.002 7.11328 20.7832L11.0195 21.5059C12.8359 21.8379 13.4609 22.2676 13.4609 23.0488C13.4609 23.9473 12.5039 24.5137 10.9609 24.5137C9.22266 24.5137 7.85547 23.9863 6.64453 22.8535C5.47266 21.7793 4.39844 21.291 3.16797 21.291C1.39062 21.291 0.121094 22.541 0.121094 24.2598C0.121094 24.6309 0.21875 25.0996 0.394531 25.5488C1.39062 27.9512 4.96484 29.748 10.9609 29.748ZM26.0406 29.6895C28.3844 29.6895 30.0445 28.3809 30.0445 25.5488V17.1504C30.0445 15.1387 31.1187 13.6738 33.1109 13.6738C35.1227 13.6738 36.1773 15.002 36.1773 17.1699V25.5488C36.1773 28.3809 37.8375 29.6895 40.1812 29.6895C42.525 29.6895 44.1852 28.3809 44.1852 25.5488V15.3926C44.1852 10.2168 41.568 7.20898 36.7242 7.20898C33.443 7.20898 31.0797 8.84961 30.0055 11.877H29.8492V4.61133C29.8492 1.99414 28.443 0.529297 25.943 0.529297C23.443 0.529297 22.0367 1.99414 22.0367 4.5918V25.5488C22.0367 28.3809 23.6969 29.6895 26.0406 29.6895ZM49.5383 29.6895C51.9992 29.6895 53.5422 28.2832 53.5422 25.5488V18.1074C53.5422 15.7441 54.05 15.041 56.1984 14.9629C57.6633 14.9043 58.7766 14.5527 59.5187 13.8887C60.2609 13.2246 60.632 12.2676 60.632 10.998C60.632 9.51367 60.2219 8.47852 59.4211 7.89258C58.9328 7.52148 58.2687 7.32617 57.468 7.32617C55.3195 7.32617 53.8937 8.84961 53.3859 11.9551H53.2297V11.1738C53.2297 8.55664 51.6867 7.15039 49.4406 7.15039C47.0969 7.15039 45.5344 8.55664 45.5344 11.1543V25.5488C45.5344 28.2832 47.0773 29.6895 49.5383 29.6895ZM62.6648 23.1855C62.6648 27.3457 64.8914 29.5137 69.2273 29.5137H69.4031C72.3133 29.5137 75.0086 28.3418 75.0086 26.0371C75.0086 24.1816 73.993 23.4395 72.3133 23.2246L71.8445 23.166C71.0828 23.0684 70.6727 22.6387 70.6727 21.4082V13.459H72.0789C73.7977 13.459 74.95 12.2871 74.95 10.5488C74.95 8.81055 73.7977 7.63867 72.0789 7.63867H70.6727V6.48633C70.6727 3.86914 69.2273 2.3457 66.6688 2.3457C64.1102 2.3457 62.6648 3.86914 62.6648 6.48633V7.63867H62.1766C60.4578 7.63867 59.3055 8.79102 59.3055 10.5488C59.3055 12.3066 60.4578 13.459 62.1766 13.459H62.6648V23.1855Z" fill="#131D3B"/>
<path d="M79.5805 29.6895C81.8266 29.6895 83.0766 28.5371 83.8578 25.7051L84.3461 23.9277H93.5258L94.0141 25.8418C94.7172 28.5762 95.9867 29.6895 98.4281 29.6895C100.83 29.6895 102.569 28.0098 102.569 25.666C102.569 24.7676 102.412 23.9863 102.022 22.9121L95.6547 5.49023C94.3852 2.01367 92.3539 0.529297 88.8187 0.529297C85.518 0.529297 83.4672 2.07227 82.2562 5.49023L75.9477 22.9121C75.5766 23.9082 75.3617 24.9629 75.3617 25.6855C75.3617 28.1855 76.9437 29.6895 79.5805 29.6895ZM85.9086 17.7559L88.7016 7.52148H88.8578L91.7875 17.7559H85.9086ZM108.449 29.6895C111.086 29.6895 112.59 28.127 112.59 25.3535V4.86523C112.59 2.0918 111.086 0.529297 108.449 0.529297C105.812 0.529297 104.309 2.0918 104.309 4.86523V25.3535C104.309 28.127 105.812 29.6895 108.449 29.6895Z" fill="#4D5DEE"/>
</svg>
